<?xml version="1.0" encoding="UTF-8" standalone="no"?>
<!-- Created with Inkscape (http://www.inkscape.org/) -->

<svg
   xmlns:dc="http://purl.org/dc/elements/1.1/"
   xmlns:cc="http://creativecommons.org/ns#"
   xmlns:rdf="http://www.w3.org/1999/02/22-rdf-syntax-ns#"
   xmlns:svg="http://www.w3.org/2000/svg"
   xmlns="http://www.w3.org/2000/svg"
   xmlns:sodipodi="http://sodipodi.sourceforge.net/DTD/sodipodi-0.dtd"
   xmlns:inkscape="http://www.inkscape.org/namespaces/inkscape"
   version="1.1"
   id="svg2"
   xml:space="preserve"
   width="188.97638"
   height="188.97638"
   viewBox="0 0 188.97638 188.97639"
   sodipodi:docname="all_your_melanzane_emboldened.svg"
   inkscape:version="0.92.1 r15371"><metadata
     id="metadata8"><rdf:RDF><cc:Work
         rdf:about=""><dc:format>image/svg+xml</dc:format><dc:type
           rdf:resource="http://purl.org/dc/dcmitype/StillImage" /><dc:title></dc:title></cc:Work></rdf:RDF></metadata><defs
     id="defs6" /><sodipodi:namedview
     pagecolor="#ffffff"
     bordercolor="#666666"
     borderopacity="1"
     objecttolerance="10"
     gridtolerance="10"
     guidetolerance="10"
     inkscape:pageopacity="0"
     inkscape:pageshadow="2"
     inkscape:window-width="1707"
     inkscape:window-height="937"
     id="namedview4"
     showgrid="false"
     showguides="true"
     inkscape:guide-bbox="true"
     inkscape:zoom="1.5160889"
     inkscape:cx="125.81654"
     inkscape:cy="237.33961"
     inkscape:window-x="-8"
     inkscape:window-y="-8"
     inkscape:window-maximized="1"
     inkscape:current-layer="g10"
     inkscape:snap-global="true"
     fit-margin-top="0"
     fit-margin-left="0"
     fit-margin-right="0"
     fit-margin-bottom="0"
     inkscape:snap-object-midpoints="true"><sodipodi:guide
       position="-605.29917,-380.9264"
       orientation="0,1"
       id="guide4771"
       inkscape:locked="false" /><sodipodi:guide
       position="198.29884,-380.9264"
       orientation="0,1"
       id="guide4791"
       inkscape:locked="false" /></sodipodi:namedview><g
     id="g10"
     inkscape:groupmode="layer"
     inkscape:label="CCF29012019"
     transform="matrix(1.3333333,0,0,-1.3333333,-221.08732,1172.3758)"><flowRoot
       xml:space="preserve"
       id="flowRoot4812"
       style="font-style:normal;font-weight:normal;font-size:40px;line-height:1;font-family:sans-serif;letter-spacing:0px;word-spacing:0px;fill:#000000;fill-opacity:1;stroke:none"><flowRegion
         id="flowRegion4814"><rect
           id="rect4816"
           width="451.27057"
           height="265.92731"
           x="-880.38055"
           y="543.17017" /></flowRegion><flowPara
         id="flowPara4818" /></flowRoot><g
       id="g5463"
       transform="matrix(3.0727574,0,0,3.0727567,-285.37256,-1526.8497)"
       inkscape:export-filename="C:\Users\NamZuru\Desktop\melanzane_d.png"
       inkscape:export-xdpi="400"
       inkscape:export-ydpi="400"
       style="stroke-width:0.32544065"><path
         inkscape:connector-curvature="0"
         id="path5943"
         d="m 192.96035,759.99036 a 23.062724,23.062724 0 0 0 -23.06272,-23.06273 23.062724,23.062724 0 0 0 -23.06272,23.06273 23.062724,23.062724 0 0 0 23.06272,23.06272 23.062724,23.062724 0 0 0 23.06272,-23.06272 z"
         style="opacity:1;vector-effect:none;fill:#000000;fill-opacity:1;stroke:none;stroke-width:5.53505325;stroke-linecap:round;stroke-linejoin:round;stroke-miterlimit:4;stroke-dasharray:none;stroke-dashoffset:0;stroke-opacity:1;paint-order:markers fill stroke" /><path
         inkscape:export-ydpi="400"
         inkscape:export-xdpi="400"
         sodipodi:nodetypes="cssc"
         inkscape:connector-curvature="0"
         id="circle6108"
         d="m 189.97171,761.57266 c 0,-11.30852 -9.16737,-20.47588 -20.47589,-20.47588 -11.30851,0 -20.47588,9.16736 -20.47588,20.47588 0,11.30852 9.16737,20.47588 20.47588,20.47588"
         style="opacity:1;vector-effect:none;fill:none;fill-opacity:1;stroke:none;stroke-width:0.48816097;stroke-linecap:round;stroke-linejoin:round;stroke-miterlimit:4;stroke-dasharray:none;stroke-dashoffset:0;stroke-opacity:1;paint-order:markers fill stroke" /><g
         id="text6106-2"
         style="font-style:normal;font-weight:normal;font-size:30px;line-height:1;font-family:sans-serif;letter-spacing:0px;word-spacing:0px;fill:#0fe827;fill-opacity:1;stroke:none;stroke-width:0.56274396"
         transform="matrix(-0.42029386,0.10713151,0.10713151,0.42029386,159.14038,420.51357)"
         aria-label="ALL YOUR MELANZANE ARE BELONG TO US "><path
           inkscape:connector-curvature="0"
           id="path5291"
           style="font-style:italic;font-variant:normal;font-weight:bold;font-stretch:normal;font-size:7.99999952px;font-family:'Liberation Mono';-inkscape-font-specification:'Liberation Mono Bold Italic';fill:#0fe827;fill-opacity:1;stroke-width:0.56274396"
           d="m 216.02026,759.25129 0.0574,1.147 -1.28197,0.17373 0.0891,1.77902 1.31794,0.54412 0.0576,1.1509 -5.40072,-2.48681 -0.0672,-1.34207 z m -4.47725,1.7379 q 0.16308,0.0544 0.43443,0.16206 0.27116,0.10375 2.0208,0.83353 l -0.0649,-1.29525 -1.47587,0.20692 -0.77812,0.082 z" /><path
           inkscape:connector-curvature="0"
           id="path5293"
           style="font-style:italic;font-variant:normal;font-weight:bold;font-stretch:normal;font-size:7.99999952px;font-family:'Liberation Mono';-inkscape-font-specification:'Liberation Mono Bold Italic';fill:#0fe827;fill-opacity:1;stroke-width:0.56274396"
           d="m 215.93796,758.43203 -5.36356,-0.218 -0.17358,-1.13919 4.45721,0.18224 -0.36246,-2.3788 0.90636,0.0358 z" /><path
           inkscape:connector-curvature="0"
           id="path5295"
           style="font-style:italic;font-variant:normal;font-weight:bold;font-stretch:normal;font-size:7.99999952px;font-family:'Liberation Mono';-inkscape-font-specification:'Liberation Mono Bold Italic';fill:#0fe827;fill-opacity:1;stroke-width:0.56274396"
           d="m 215.1735,753.69418 -5.35786,0.32986 -0.28879,-1.11557 4.45257,-0.27304 -0.60305,-2.32946 0.90528,-0.0568 z" /><path
           inkscape:connector-curvature="0"
           id="path5297"
           style="font-style:italic;font-variant:normal;font-weight:bold;font-stretch:normal;font-size:7.99999952px;font-family:'Liberation Mono';-inkscape-font-specification:'Liberation Mono Bold Italic';fill:#0fe827;fill-opacity:1;stroke-width:0.56274396"
           d="m 211.26866,742.64832 0.50769,1.03013 -2.13463,0.58171 -2.24322,2.45556 -0.53359,-1.08268 1.65507,-1.64312 -2.69808,-0.4732 -0.53359,-1.08268 3.84572,0.79599 z" /><path
           inkscape:connector-curvature="0"
           id="path5299"
           style="font-style:italic;font-variant:normal;font-weight:bold;font-stretch:normal;font-size:7.99999952px;font-family:'Liberation Mono';-inkscape-font-specification:'Liberation Mono Bold Italic';fill:#0fe827;fill-opacity:1;stroke-width:0.56274396"
           d="m 209.29545,738.92417 q 0.44175,0.70508 0.28921,1.30771 -0.15793,0.60139 -0.91598,1.07632 -0.54287,0.34012 -1.27428,0.56327 -0.73678,0.22191 -1.34384,0.18738 -0.61036,-0.0325 -1.0943,-0.31929 -0.48601,-0.29014 -0.82198,-0.82639 -0.43968,-0.70177 -0.29375,-1.30025 0.14385,-0.60179 0.89527,-1.07257 0.54288,-0.34013 1.28297,-0.56411 0.73679,-0.22192 1.35792,-0.18699 0.61575,0.0337 1.103,0.31845 0.48394,0.28683 0.81576,0.81647 z m -3.85472,0.5574 q -0.81431,0.51018 -0.44515,1.09941 0.22191,0.35419 0.67828,0.42781 0.4543,0.0703 1.14307,-0.13996 0.6867,-0.21358 1.14351,-0.49978 0.8408,-0.52678 0.47371,-1.11269 -0.21983,-0.35088 -0.68283,-0.42035 -0.46631,-0.0674 -1.15508,0.14287 -0.69208,0.21234 -1.15551,0.50269 z" /><path
           inkscape:connector-curvature="0"
           id="path5301"
           style="font-style:italic;font-variant:normal;font-weight:bold;font-stretch:normal;font-size:7.99999952px;font-family:'Liberation Mono';-inkscape-font-specification:'Liberation Mono Bold Italic';fill:#0fe827;fill-opacity:1;stroke-width:0.56274396"
           d="m 206.61585,735.01362 q 0.47724,0.6136 0.43819,1.1042 -0.0421,0.493 -0.59406,0.92229 -0.27134,0.21104 -0.66328,0.40701 l -2.91278,1.47868 -0.70748,-0.9096 2.90354,-1.47149 q 0.33849,-0.16924 0.55124,-0.33472 0.26209,-0.20385 0.29155,-0.39502 0.0264,-0.18877 -0.14629,-0.41078 -0.24702,-0.31759 -0.62696,-0.32889 -0.38303,-0.009 -1.0189,0.31246 l -2.8679,1.45367 -0.70747,-0.9096 2.85933,-1.45196 q 1.01855,-0.51014 1.80688,-0.38098 0.78284,0.12847 1.39439,0.91473 z" /><path
           inkscape:connector-curvature="0"
           id="path5303"
           style="font-style:italic;font-variant:normal;font-weight:bold;font-stretch:normal;font-size:7.99999952px;font-family:'Liberation Mono';-inkscape-font-specification:'Liberation Mono Bold Italic';fill:#0fe827;fill-opacity:1;stroke-width:0.56274396"
           d="m 202.65084,730.55072 -0.94278,1.92588 0.46659,0.48885 1.72494,-1.10643 0.79564,0.83358 -4.51849,2.89803 -1.33236,-1.39589 q -0.62033,-0.64991 -0.70457,-1.18511 -0.0871,-0.5325 0.33397,-0.93436 0.1978,-0.1888 0.47458,-0.32879 0.27127,-0.14011 0.57605,-0.17722 0.30478,-0.0371 0.62638,0.0339 0.31878,0.0737 0.59941,0.24328 l 1.00521,-2.23387 z m -3.18761,2.22173 q -0.21475,0.20498 -0.1377,0.45543 0.0715,0.25033 0.36822,0.56115 l 0.45311,0.47472 1.25934,-0.80783 -0.47468,-0.49732 q -0.67967,-0.71207 -1.32482,-0.29609 z" /><path
           inkscape:connector-curvature="0"
           id="path5305"
           style="font-style:italic;font-variant:normal;font-weight:bold;font-stretch:normal;font-size:7.99999952px;font-family:'Liberation Mono';-inkscape-font-specification:'Liberation Mono Bold Italic';fill:#0fe827;fill-opacity:1;stroke-width:0.56274396"
           d="m 195.24105,724.40142 -2.47499,2.40968 q -0.14565,0.14142 -0.44854,0.40672 -0.30511,0.26851 -0.45914,0.39461 0.95224,-0.63255 1.21178,-0.78054 l 1.73205,-1.02342 0.6997,0.48537 -0.92965,1.58003 q -0.20018,0.33655 -0.72713,1.11674 0.57969,-0.64377 0.81139,-0.86813 l 2.475,-2.40967 0.70611,0.48982 -3.84442,3.74644 -1.11373,-0.77258 0.98904,-1.68621 0.0982,-0.1553 q 0.0957,-0.13802 0.43856,-0.57053 -0.49544,0.36468 -0.78491,0.54896 l -1.86107,1.08604 -1.07522,-0.74586 3.84442,-3.74644 z" /><path
           inkscape:connector-curvature="0"
           id="path5307"
           style="font-style:italic;font-variant:normal;font-weight:bold;font-stretch:normal;font-size:7.99999952px;font-family:'Liberation Mono';-inkscape-font-specification:'Liberation Mono Bold Italic';fill:#0fe827;fill-opacity:1;stroke-width:0.56274396"
           d="m 193.76421,723.39229 -3.44469,4.11698 -3.30945,-1.82905 0.58124,-0.69636 2.30089,1.27165 0.82759,-0.98867 -2.09234,-1.15638 0.58124,-0.69636 2.09233,1.15638 0.87339,-1.03923 -2.44106,-1.34911 0.58124,-0.69636 z" /><path
           inkscape:connector-curvature="0"
           id="path5309"
           style="font-style:italic;font-variant:normal;font-weight:bold;font-stretch:normal;font-size:7.99999952px;font-family:'Liberation Mono';-inkscape-font-specification:'Liberation Mono Bold Italic';fill:#0fe827;fill-opacity:1;stroke-width:0.56274396"
           d="m 189.2907,720.96803 -3.00747,4.44641 -1.06008,-0.45179 2.50017,-3.69447 -2.2136,-0.94339 0.50729,-0.75194 z" /><path
           inkscape:connector-curvature="0"
           id="path5311"
           style="font-style:italic;font-variant:normal;font-weight:bold;font-stretch:normal;font-size:7.99999952px;font-family:'Liberation Mono';-inkscape-font-specification:'Liberation Mono Bold Italic';fill:#0fe827;fill-opacity:1;stroke-width:0.56274396"
           d="m 181.06101,717.94844 1.09697,0.33997 -0.27712,1.26366 1.70141,0.52729 0.96366,-1.0509 1.1007,0.34112 -4.19038,4.21814 -1.28353,-0.39778 z m 0.0945,4.80179 q 0.10711,-0.13448 0.30141,-0.35235 0.19056,-0.21903 1.47685,-1.61161 l -1.23875,-0.38391 -0.31255,1.45717 -0.19022,0.75895 z" /><path
           inkscape:connector-curvature="0"
           id="path5313"
           style="font-style:italic;font-variant:normal;font-weight:bold;font-stretch:normal;font-size:7.99999952px;font-family:'Liberation Mono';-inkscape-font-specification:'Liberation Mono Bold Italic';fill:#0fe827;fill-opacity:1;stroke-width:0.56274396"
           d="m 178.20638,717.33272 -0.0569,4.01267 0.15211,-0.51928 q 0.19509,-0.61423 0.27339,-0.80569 l 0.99482,-2.41386 0.98425,0.19769 -2.04109,4.96481 -1.29063,-0.25923 0.0624,-4.11915 q -0.25278,0.90147 -0.44545,1.36479 l -1.01479,2.4736 -0.98425,-0.1977 2.04109,-4.96481 z" /><path
           inkscape:connector-curvature="0"
           id="path5315"
           style="font-style:italic;font-variant:normal;font-weight:bold;font-stretch:normal;font-size:7.99999952px;font-family:'Liberation Mono';-inkscape-font-specification:'Liberation Mono Bold Italic';fill:#0fe827;fill-opacity:1;stroke-width:0.56274396"
           d="m 171.94545,716.49379 4.08636,0.39568 -0.2381,0.79717 -3.6354,3.21537 2.31339,0.22401 -0.26192,0.8812 -3.63146,-0.35163 0.2327,-0.78199 3.6408,-3.23056 -2.7683,-0.26805 z" /><path
           inkscape:connector-curvature="0"
           id="path5317"
           style="font-style:italic;font-variant:normal;font-weight:bold;font-stretch:normal;font-size:7.99999952px;font-family:'Liberation Mono';-inkscape-font-specification:'Liberation Mono Bold Italic';fill:#0fe827;fill-opacity:1;stroke-width:0.56274396"
           d="m 166.79224,716.43803 1.14843,-0.004 0.11439,1.28863 1.78123,-0.007 0.60436,-1.29142 1.15233,-0.004 -2.73339,5.28021 -1.34374,0.005 z m 1.52943,4.55268 q 0.0619,-0.16039 0.18194,-0.42649 0.11615,-0.26608 0.9259,-1.98018 l -1.29686,0.005 0.13858,1.48385 0.046,0.78107 z" /><path
           inkscape:connector-curvature="0"
           id="path5319"
           style="font-style:italic;font-variant:normal;font-weight:bold;font-stretch:normal;font-size:7.99999952px;font-family:'Liberation Mono';-inkscape-font-specification:'Liberation Mono Bold Italic';fill:#0fe827;fill-opacity:1;stroke-width:0.56274396"
           d="m 163.88388,716.70072 1.14153,3.8473 -0.01,-0.54102 q 0.003,-0.64446 0.0208,-0.85055 l 0.23024,-2.60065 0.99844,-0.10462 -0.46872,5.34749 -1.30924,0.13719 -1.16805,-3.95057 q 0.0274,0.93584 -0.0185,1.43552 l -0.23149,2.66363 -0.99844,0.10462 0.46871,-5.34749 z" /><path
           inkscape:connector-curvature="0"
           id="path5321"
           style="font-style:italic;font-variant:normal;font-weight:bold;font-stretch:normal;font-size:7.99999952px;font-family:'Liberation Mono';-inkscape-font-specification:'Liberation Mono Bold Italic';fill:#0fe827;fill-opacity:1;stroke-width:0.56274396"
           d="m 161.48463,716.96455 0.077,5.36745 -3.70118,0.77406 -0.0141,-0.90695 2.57323,-0.53816 -0.0182,-1.28921 -2.34,0.48939 -0.0141,-0.90695 2.33999,-0.48938 -0.0165,-1.3574 -2.73,0.57095 -0.0141,-0.90695 z" /><path
           inkscape:connector-curvature="0"
           id="path5323"
           style="font-style:italic;font-variant:normal;font-weight:bold;font-stretch:normal;font-size:7.99999952px;font-family:'Liberation Mono';-inkscape-font-specification:'Liberation Mono Bold Italic';fill:#0fe827;fill-opacity:1;stroke-width:0.56274396"
           d="m 148.30805,721.13334 1.05288,-0.45864 0.61508,1.13812 1.63304,-0.71137 0.0439,-1.42516 1.05646,-0.46021 -0.4203,5.93088 -1.23194,0.53664 z m 3.20647,3.57556 q -0.007,-0.17179 -0.002,-0.46368 0.001,-0.29032 0.0665,-2.18494 l -1.18896,0.51793 0.71457,1.30782 0.35139,0.69909 z" /><path
           inkscape:connector-curvature="0"
           id="path5325"
           style="font-style:italic;font-variant:normal;font-weight:bold;font-stretch:normal;font-size:7.99999952px;font-family:'Liberation Mono';-inkscape-font-specification:'Liberation Mono Bold Italic';fill:#0fe827;fill-opacity:1;stroke-width:0.56274396"
           d="m 145.24298,722.81179 1.63373,1.3888 0.58885,-0.33156 -0.64663,-1.94459 1.00411,-0.56538 1.69361,5.09382 -1.68146,0.94677 q -0.78287,0.4408 -1.32231,0.39039 -0.53752,-0.047 -0.82308,-0.55417 -0.13416,-0.23827 -0.20153,-0.54103 -0.0688,-0.29745 -0.0296,-0.60197 0.0392,-0.30451 0.18743,-0.59865 0.1501,-0.29073 0.38364,-0.52085 l -1.9168,-1.52529 z m 1.36658,3.63722 q 0.14565,0.25869 0.40738,0.24581 0.26023,-0.008 0.63465,-0.21837 l 0.57183,-0.32198 -0.47214,-1.41973 -0.59907,0.33731 q -0.85775,0.48297 -0.6138,1.21081 z" /><path
           inkscape:connector-curvature="0"
           id="path5327"
           style="font-style:italic;font-variant:normal;font-weight:bold;font-stretch:normal;font-size:7.99999952px;font-family:'Liberation Mono';-inkscape-font-specification:'Liberation Mono Bold Italic';fill:#0fe827;fill-opacity:1;stroke-width:0.56274396"
           d="m 143.64664,723.72568 2.20126,4.8959 -3.08982,2.17965 -0.37294,-0.82684 2.14819,-1.5154 -0.52846,-1.17605 -1.95348,1.37805 -0.37294,-0.82685 1.95347,-1.37804 -0.55397,-1.23932 -2.27906,1.60772 -0.37294,-0.82685 z" /><path
           inkscape:connector-curvature="0"
           id="path5329"
           style="font-style:italic;font-variant:normal;font-weight:bold;font-stretch:normal;font-size:7.99999952px;font-family:'Liberation Mono';-inkscape-font-specification:'Liberation Mono Bold Italic';fill:#0fe827;fill-opacity:1;stroke-width:0.56274396"
           d="m 134.56028,731.31904 1.55673,-1.65684 3.13954,4.35416 -1.40426,1.49457 q -0.50019,0.53235 -0.95288,0.63765 -0.44985,0.10797 -0.81993,-0.23975 -0.40709,-0.3825 -0.46744,-0.90015 -0.0575,-0.51498 0.28456,-1.06728 -0.4334,0.36999 -0.81922,0.40412 -0.38565,0.0397 -0.69595,-0.2519 -0.22775,-0.21399 -0.37913,-0.54918 -0.14853,-0.33251 -0.13848,-0.71971 0.007,-0.38436 0.18608,-0.76852 0.17871,-0.38416 0.51038,-0.73717 z m 2.13824,3.52591 q 0.32169,0.30225 0.69883,-0.0992 l 0.55903,-0.59498 -0.74229,-1.02976 -0.56438,0.60068 q -0.43867,0.46687 -0.0716,0.98326 0.0663,0.0891 0.12043,0.13995 z m -1.51932,-1.57759 q 0.18789,0.17653 0.40789,0.14204 0.22001,-0.0345 0.45271,-0.28216 l 0.6687,-0.7117 -0.87212,-1.20534 -0.68742,0.73163 q -0.20863,0.22205 -0.26499,0.45317 -0.059,0.23398 0.0312,0.46882 0.0875,0.2377 0.26405,0.40354 z" /><path
           inkscape:connector-curvature="0"
           id="path5331"
           style="font-style:italic;font-variant:normal;font-weight:bold;font-stretch:normal;font-size:7.99999952px;font-family:'Liberation Mono';-inkscape-font-specification:'Liberation Mono Bold Italic';fill:#0fe827;fill-opacity:1;stroke-width:0.56274396"
           d="m 132.83924,733.16934 3.56289,4.01512 -2.2979,3.00291 -0.60285,-0.67774 1.59761,-2.08777 -0.85555,-0.96457 -1.45281,1.89854 -0.60284,-0.67774 1.4528,-1.89853 -0.89879,-1.01734 -1.69494,2.21496 -0.60285,-0.67774 z" /><path
           inkscape:connector-curvature="0"
           id="path5333"
           style="font-style:italic;font-variant:normal;font-weight:bold;font-stretch:normal;font-size:7.99999952px;font-family:'Liberation Mono';-inkscape-font-specification:'Liberation Mono Bold Italic';fill:#0fe827;fill-opacity:1;stroke-width:0.56274396"
           d="m 129.78052,737.23542 3.95098,3.63389 -0.60408,0.98133 -3.28262,-3.02065 -1.26139,2.04913 -0.66834,-0.61324 z" /><path
           inkscape:connector-curvature="0"
           id="path5335"
           style="font-style:italic;font-variant:normal;font-weight:bold;font-stretch:normal;font-size:7.99999952px;font-family:'Liberation Mono';-inkscape-font-specification:'Liberation Mono Bold Italic';fill:#0fe827;fill-opacity:1;stroke-width:0.56274396"
           d="m 126.55073,742.71716 q 0.36188,-0.74922 0.95327,-0.94076 0.59321,-0.18632 1.3987,0.20274 0.57686,0.27863 1.15501,0.77913 0.57996,0.5057 0.87377,1.03804 0.29732,0.53404 0.31201,1.0964 0.013,0.56588 -0.26225,1.1357 -0.36018,0.7457 -0.94453,0.94063 -0.58606,0.19846 -1.38451,-0.18721 -0.57686,-0.27863 -1.16035,-0.78603 -0.57996,-0.50571 -0.88092,-1.05018 -0.29915,-0.53925 -0.31735,-1.10331 -0.0147,-0.56237 0.25715,-1.12515 z m 2.52322,2.96697 q 0.86529,0.41794 1.1677,-0.20816 0.18179,-0.37637 0.001,-0.80193 -0.18223,-0.42205 -0.72679,-0.8933 -0.54625,-0.46774 -1.03166,-0.70219 -0.89342,-0.43154 -1.19414,0.19105 -0.18009,0.37285 0.007,0.80181 0.19108,0.43066 0.73564,0.90192 0.54807,0.47295 1.04051,0.7108 z" /><path
           inkscape:connector-curvature="0"
           id="path5337"
           style="font-style:italic;font-variant:normal;font-weight:bold;font-stretch:normal;font-size:7.99999952px;font-family:'Liberation Mono';-inkscape-font-specification:'Liberation Mono Bold Italic';fill:#0fe827;fill-opacity:1;stroke-width:0.56274396"
           d="m 124.53671,747.65582 3.95943,0.65403 -0.49083,-0.22777 q -0.57832,-0.28441 -0.75597,-0.39035 l -2.23874,-1.3433 0.3421,-0.94382 4.60537,2.75789 -0.44859,1.23761 -4.06391,-0.67528 q 0.85376,0.38424 1.28321,0.64378 l 2.29483,1.37194 -0.3421,0.94382 -4.60537,-2.75789 z" /><path
           inkscape:connector-curvature="0"
           id="path5339"
           style="font-style:italic;font-variant:normal;font-weight:bold;font-stretch:normal;font-size:7.99999952px;font-family:'Liberation Mono';-inkscape-font-specification:'Liberation Mono Bold Italic';fill:#0fe827;fill-opacity:1;stroke-width:0.56274396"
           d="m 123.18193,751.7824 q 0.20494,-0.81848 0.78582,-1.12806 0.58467,-0.30863 1.45241,-0.0914 0.61007,0.15276 1.27879,0.53766 0.67156,0.38964 1.04846,0.84643 0.38068,0.45774 0.48943,1.00443 0.11253,0.54764 -0.0469,1.18424 -0.16984,0.67828 -0.60954,0.95475 -0.4397,0.27648 -1.18053,0.16346 l 0.0648,-1.12739 q 0.76166,0.12629 0.88596,-0.3701 0.11101,-0.44334 -0.12096,-0.81955 -0.22913,-0.37147 -0.85334,-0.72509 -0.6242,-0.35361 -1.1547,-0.48645 -1.01173,-0.25334 -1.2034,0.51209 -0.0522,0.20841 -0.0324,0.46706 0.0236,0.2596 0.10216,0.44437 l 0.84683,0.39728 0.25998,-1.03825 0.78621,0.36599 -0.51617,2.06136 -2.01193,-0.93869 q -0.50923,-1.26308 -0.27107,-2.21419 z" /><path
           inkscape:connector-curvature="0"
           id="path5341"
           style="font-style:italic;font-variant:normal;font-weight:bold;font-stretch:normal;font-size:7.99999952px;font-family:'Liberation Mono';-inkscape-font-specification:'Liberation Mono Bold Italic';fill:#0fe827;fill-opacity:1;stroke-width:0.56274396"
           d="m 126.1373,762.81725 -4.33904,-1.03573 0.0487,-1.15131 4.33904,1.03573 0.067,-1.58452 0.88257,0.20933 -0.18261,4.32036 -0.88258,-0.20933 z" /><path
           inkscape:connector-curvature="0"
           id="path5343"
           style="font-style:italic;font-variant:normal;font-weight:bold;font-stretch:normal;font-size:7.99999952px;font-family:'Liberation Mono';-inkscape-font-specification:'Liberation Mono Bold Italic';fill:#0fe827;fill-opacity:1;stroke-width:0.56274396"
           d="m 121.74026,765.99224 q -0.0481,-0.83064 0.37549,-1.28559 0.42774,-0.45128 1.32077,-0.50302 0.63955,-0.0371 1.38812,0.11912 0.75269,0.15985 1.26829,0.48213 0.5195,0.32205 0.8058,0.8063 0.28653,0.48815 0.32314,1.11991 0.0479,0.82674 -0.36792,1.28124 -0.41558,0.4584 -1.30082,0.50969 -0.63955,0.0371 -1.39614,-0.12258 -0.7527,-0.15985 -1.28045,-0.48925 -0.52362,-0.32573 -0.81382,-0.80975 -0.2863,-0.48425 -0.32246,-1.1082 z m 3.6476,1.36551 q 0.95932,-0.0556 0.91911,-0.74973 -0.0242,-0.41727 -0.38888,-0.70134 -0.36447,-0.28016 -1.06947,-0.42713 -0.70476,-0.14307 -1.24292,-0.11189 -0.99053,0.0574 -0.95054,0.74764 0.0239,0.41337 0.39645,0.69699 0.3764,0.28339 1.08139,0.43036 0.7089,0.14674 1.25486,0.1151 z" /><path
           inkscape:connector-curvature="0"
           id="path5345"
           style="font-style:italic;font-variant:normal;font-weight:bold;font-stretch:normal;font-size:7.99999952px;font-family:'Liberation Mono';-inkscape-font-specification:'Liberation Mono Bold Italic';fill:#0fe827;fill-opacity:1;stroke-width:0.56274396"
           d="m 123.16071,775.41707 q -0.2008,-0.75096 0.0261,-1.18768 0.23069,-0.43773 0.90618,-0.61836 0.33208,-0.0888 0.76938,-0.11677 l 3.25863,-0.22843 0.29767,1.11323 -3.2473,0.2254 q -0.37767,0.0242 -0.63805,0.0938 -0.32077,0.0858 -0.42231,0.2504 -0.0978,0.16363 -0.0251,0.43533 0.10394,0.38869 0.44952,0.54697 0.34936,0.15728 1.06017,0.10874 l 3.20755,-0.22286 0.29767,1.11323 -3.19899,0.22462 q -1.13679,0.0735 -1.81269,-0.3523 -0.67111,-0.42303 -0.92843,-1.38531 z" /><path
           inkscape:connector-curvature="0"
           id="path5347"
           style="font-style:italic;font-variant:normal;font-weight:bold;font-stretch:normal;font-size:7.99999952px;font-family:'Liberation Mono';-inkscape-font-specification:'Liberation Mono Bold Italic';fill:#0fe827;fill-opacity:1;stroke-width:0.56274396"
           d="m 124.60667,780.04627 q -0.32653,-0.85793 -0.14434,-1.46644 0.18357,-0.60486 0.86523,-0.88937 l 0.5422,1.01827 q -0.33623,0.14886 -0.45087,0.45163 -0.111,0.30138 0.0655,0.76503 0.13756,0.36142 0.31045,0.56311 0.17794,0.20396 0.40042,0.26139 0.22613,0.056 0.43787,-0.0246 0.38699,-0.14728 0.30362,-0.92639 -0.10176,-0.89333 -0.0559,-1.24514 0.0495,-0.3532 0.21468,-0.59998 0.16521,-0.24678 0.47918,-0.36627 0.32492,-0.12367 0.68073,-0.10026 0.35947,0.022 0.70793,0.22376 0.34846,0.20174 0.63185,0.562 0.28479,0.36391 0.46681,0.84216 0.31124,0.81777 0.13778,1.33937 -0.16982,0.52021 -0.84747,0.7823 l -0.5116,-1.02573 q 0.65697,-0.28348 0.39436,-0.97348 -0.11254,-0.29571 -0.27432,-0.4682 -0.15813,-0.17387 -0.35906,-0.21861 -0.20093,-0.0447 -0.37981,0.0233 -0.14604,0.0556 -0.21265,0.17706 -0.0652,0.12514 -0.0827,0.29896 -0.0124,0.17608 0.0399,0.68697 0.0705,0.67951 0.0152,1.03914 -0.054,0.36327 -0.23346,0.59458 -0.17581,0.22992 -0.46422,0.33969 -0.4819,0.18341 -1.01377,0.0598 -0.53187,-0.12358 -0.96473,-0.56905 -0.42782,-0.44322 -0.69877,-1.15512 z" /></g><path
         inkscape:connector-curvature="0"
         id="circle5829"
         d="m 169.89798,776.18073 c -8.93638,0 -16.19043,-7.25405 -16.19043,-16.19043 0,-8.93638 7.25405,-16.18958 16.19043,-16.18958 8.93638,0 16.18958,7.2532 16.18958,16.18958 0,8.93638 -7.2532,16.19043 -16.18958,16.19043 z m 0,-0.86069 c 8.47126,0 15.32889,-6.85848 15.32889,-15.32974 0,-8.47125 -6.85763,-15.32889 -15.32889,-15.32889 -8.47125,0 -15.32974,6.85764 -15.32974,15.32889 0,8.47126 6.85849,15.32974 15.32974,15.32974 z"
         style="color:#000000;font-style:normal;font-variant:normal;font-weight:normal;font-stretch:normal;font-size:medium;line-height:normal;font-family:sans-serif;font-variant-ligatures:normal;font-variant-position:normal;font-variant-caps:normal;font-variant-numeric:normal;font-variant-alternates:normal;font-feature-settings:normal;text-indent:0;text-align:start;text-decoration:none;text-decoration-line:none;text-decoration-style:solid;text-decoration-color:#000000;letter-spacing:normal;word-spacing:normal;text-transform:none;writing-mode:lr-tb;direction:ltr;text-orientation:mixed;dominant-baseline:auto;baseline-shift:baseline;text-anchor:start;white-space:normal;shape-padding:0;clip-rule:nonzero;display:inline;overflow:visible;visibility:visible;opacity:1;isolation:auto;mix-blend-mode:normal;color-interpolation:sRGB;color-interpolation-filters:linearRGB;solid-color:#000000;solid-opacity:1;vector-effect:none;fill:#0fe827;fill-opacity:1;fill-rule:nonzero;stroke:none;stroke-width:0.64575624;stroke-linecap:round;stroke-linejoin:round;stroke-miterlimit:4;stroke-dasharray:none;stroke-dashoffset:0;stroke-opacity:1;paint-order:markers fill stroke;color-rendering:auto;image-rendering:auto;shape-rendering:auto;text-rendering:auto;enable-background:accumulate" /><g
         id="text6198"
         style="font-style:normal;font-weight:normal;font-size:30px;line-height:1;font-family:sans-serif;letter-spacing:0px;word-spacing:0px;fill:#0fe827;fill-opacity:1;stroke:none;stroke-width:0.56274396"
         transform="matrix(0.39841783,-0.1714273,-0.1714273,-0.39841783,233.49457,1093.8432)"
         aria-label="      — AUBERGINES — EGGPLANTS —"><path
           inkscape:connector-curvature="0"
           id="path5246"
           style="font-style:normal;font-variant:normal;font-weight:bold;font-stretch:normal;font-size:7.99999952px;font-family:'Liberation Mono';-inkscape-font-specification:'Liberation Mono Bold';fill:#0fe827;fill-opacity:1;stroke-width:0.56274396"
           d="m 206.46443,737.60574 -0.62593,0.48684 -2.99298,-3.84807 0.62593,-0.48684 z" /><path
           inkscape:connector-curvature="0"
           id="path5248"
           style="font-style:normal;font-variant:normal;font-weight:bold;font-stretch:normal;font-size:7.99999952px;font-family:'Liberation Mono';-inkscape-font-specification:'Liberation Mono Bold';fill:#0fe827;fill-opacity:1;stroke-width:0.56274396"
           d="m 197.81857,726.18935 0.87267,0.74656 -0.5649,1.21315 1.35353,1.15793 1.11106,-0.74591 0.87564,0.7491 -4.7405,2.87927 -1.02108,-0.87353 z m -1.14088,5.02311 q 0.1304,-0.10435 0.409,-0.29782 0.2731,-0.19304 1.64542,-1.10613 l -0.98547,-0.84306 q -0.69891,1.52003 -0.84226,1.81378 -0.14632,0.29122 -0.22669,0.43323 z" /><path
           inkscape:connector-curvature="0"
           id="path5250"
           style="font-style:normal;font-variant:normal;font-weight:bold;font-stretch:normal;font-size:7.99999952px;font-family:'Liberation Mono';-inkscape-font-specification:'Liberation Mono Bold';fill:#0fe827;fill-opacity:1;stroke-width:0.56274396"
           d="m 195.94034,724.79143 q 0.78957,0.54771 0.8507,1.22716 0.0611,0.67945 -0.56228,1.57814 l -1.82792,2.6351 -0.94684,-0.6568 1.82124,-2.62547 q 0.38964,-0.56169 0.42378,-0.88505 0.0287,-0.32237 -0.29867,-0.54947 -0.3338,-0.23156 -0.65609,-0.0891 -0.32229,0.1425 -0.71414,0.70739 l -1.79899,2.59337 -0.94683,-0.6568 1.79452,-2.58696 q 0.63677,-0.91795 1.34424,-1.088 0.70204,-0.16907 1.51728,0.39645 z" /><path
           inkscape:connector-curvature="0"
           id="path5252"
           style="font-style:normal;font-variant:normal;font-weight:bold;font-stretch:normal;font-size:7.99999952px;font-family:'Liberation Mono';-inkscape-font-specification:'Liberation Mono Bold';fill:#0fe827;fill-opacity:1;stroke-width:0.56274396"
           d="m 189.09139,722.52806 q 0.34201,-0.61882 0.95867,-0.73324 0.61667,-0.11442 1.3654,0.29938 l 1.98977,1.0997 -2.54895,4.61202 -1.7949,-0.99199 q -0.74531,-0.41191 -0.96194,-0.9244 -0.22194,-0.51095 0.0879,-1.07164 0.21729,-0.39317 0.59221,-0.53855 0.37302,-0.14197 0.8962,0.0177 -0.55061,-0.38464 -0.69617,-0.83999 -0.14898,-0.45724 0.11177,-0.92904 z m 0.18696,2.71426 q -0.30232,0.54701 0.26863,0.86256 l 0.71454,0.39491 0.60275,-1.09061 -0.72137,-0.39869 q -0.56411,-0.31177 -0.86455,0.23183 z m 0.7812,-2.06761 q -0.16627,0.30086 -0.0739,0.56169 0.0905,0.26425 0.43581,0.45509 l 0.85471,0.47238 0.70668,-1.27865 -0.87865,-0.48561 q -0.68377,-0.3779 -1.04467,0.2751 z" /><path
           inkscape:connector-curvature="0"
           id="path5254"
           style="font-style:normal;font-variant:normal;font-weight:bold;font-stretch:normal;font-size:7.99999952px;font-family:'Liberation Mono';-inkscape-font-specification:'Liberation Mono Bold';fill:#0fe827;fill-opacity:1;stroke-width:0.56274396"
           d="m 189.1793,720.92056 -2.06597,4.84765 -3.47852,-1.48247 0.34918,-0.81933 2.41844,1.03069 0.4962,-1.1643 -2.19924,-0.93726 0.34918,-0.81933 2.19923,0.93727 0.52224,-1.22539 -2.56577,-1.09348 0.34918,-0.81932 z" /><path
           inkscape:connector-curvature="0"
           id="path5256"
           style="font-style:normal;font-variant:normal;font-weight:bold;font-stretch:normal;font-size:7.99999952px;font-family:'Liberation Mono';-inkscape-font-specification:'Liberation Mono Bold';fill:#0fe827;fill-opacity:1;stroke-width:0.56274396"
           d="m 181.91545,718.21325 0.48653,2.25689 0.64549,0.20005 0.59551,-1.92156 1.1007,0.34112 -1.5599,5.03336 -1.8432,-0.57124 q -0.98503,-0.30527 -1.35471,-0.84106 -0.36968,-0.53579 -0.14535,-1.25964 0.15842,-0.51117 0.54553,-0.78379 0.38712,-0.27263 0.921,-0.26666 l -0.63035,-2.57138 z m -0.9529,3.53658 q -0.10869,0.35073 0.0718,0.58659 0.1793,0.2396 0.68674,0.39686 l 0.62684,0.19427 0.43478,-1.40293 -0.65669,-0.20351 q -0.94025,-0.2914 -1.16343,0.42872 z" /><path
           inkscape:connector-curvature="0"
           id="path5258"
           style="font-style:normal;font-variant:normal;font-weight:bold;font-stretch:normal;font-size:7.99999952px;font-family:'Liberation Mono';-inkscape-font-specification:'Liberation Mono Bold';fill:#0fe827;fill-opacity:1;stroke-width:0.56274396"
           d="m 176.20664,717.66815 q 1.08832,-0.59818 2.04576,-0.40587 0.99957,0.20076 1.42177,1.01469 0.42144,0.81775 0.16452,2.09689 -0.53,2.63871 -2.66701,2.20948 -0.68935,-0.13847 -1.05441,-0.58233 -0.36505,-0.44386 -0.42648,-1.20922 l 1.0909,0.004 q 0.0514,0.79524 0.55696,0.89677 0.51702,0.10385 0.8452,-0.26053 0.32436,-0.36516 0.50974,-1.28813 0.17154,-0.85404 0.008,-1.36898 -0.16352,-0.51493 -0.68819,-0.62032 -0.20298,-0.0408 -0.43283,-0.007 -0.23368,0.0328 -0.42069,0.13065 l -0.18077,0.9 1.04936,0.21077 -0.16769,0.83488 -2.08339,-0.41846 z" /><path
           inkscape:connector-curvature="0"
           id="path5260"
           style="font-style:normal;font-variant:normal;font-weight:bold;font-stretch:normal;font-size:7.99999952px;font-family:'Liberation Mono';-inkscape-font-specification:'Liberation Mono Bold';fill:#0fe827;fill-opacity:1;stroke-width:0.56274396"
           d="m 174.84353,722.06858 -3.56147,-0.34485 0.0858,-0.88648 1.20919,0.11709 0.33619,-3.47205 -1.20919,-0.11708 0.0858,-0.88648 3.56147,0.34485 -0.0858,0.88648 -1.20919,-0.11708 -0.33619,3.47204 1.20919,0.11709 z" /><path
           inkscape:connector-curvature="0"
           id="path5262"
           style="font-style:normal;font-variant:normal;font-weight:bold;font-stretch:normal;font-size:7.99999952px;font-family:'Liberation Mono';-inkscape-font-specification:'Liberation Mono Bold';fill:#0fe827;fill-opacity:1;stroke-width:0.56274396"
           d="m 168.26098,716.43232 1.51533,3.93945 q -0.1132,-0.98394 -0.11475,-1.38238 l -0.01,-2.56248 1.0039,-0.004 0.0205,5.26949 -1.31639,0.005 -1.5509,-4.04478 q 0.11294,0.91754 0.11492,1.42535 l 0.0102,2.62498 -1.0039,0.004 -0.0205,-5.26949 z" /><path
           inkscape:connector-curvature="0"
           id="path5264"
           style="font-style:normal;font-variant:normal;font-weight:bold;font-stretch:normal;font-size:7.99999952px;font-family:'Liberation Mono';-inkscape-font-specification:'Liberation Mono Bold';fill:#0fe827;fill-opacity:1;stroke-width:0.56274396"
           d="m 165.84969,716.49473 0.54914,5.24084 -3.76066,0.39406 -0.0928,-0.88578 2.61459,-0.27396 -0.13189,-1.25874 -2.37761,0.24913 -0.0928,-0.88577 2.3776,-0.24913 -0.13881,-1.32478 -2.77388,0.29065 -0.0928,-0.88577 z" /><path
           inkscape:connector-curvature="0"
           id="path5266"
           style="font-style:normal;font-variant:normal;font-weight:bold;font-stretch:normal;font-size:7.99999952px;font-family:'Liberation Mono';-inkscape-font-specification:'Liberation Mono Bold';fill:#0fe827;fill-opacity:1;stroke-width:0.56274396"
           d="m 157.46523,719.36555 q -0.15353,-0.73412 0.32057,-1.27225 0.47107,-0.53351 1.46901,-0.74222 0.89853,-0.18792 1.54358,0.0723 0.64504,0.26018 0.95677,0.94925 l -1.06012,0.36937 q -0.16311,-0.34102 -0.48621,-0.49294 -0.3223,-0.1481 -0.80788,-0.0466 -0.50471,0.10556 -0.71201,0.31652 -0.21112,0.21177 -0.13995,0.55206 0.0528,0.25236 0.30288,0.37963 0.2509,0.13111 0.68081,0.14496 0.86364,0.0269 1.23432,0.10102 0.36766,0.0788 0.60869,0.2199 0.24103,0.14115 0.40308,0.36266 0.15904,0.22614 0.22301,0.53202 0.13994,0.66912 -0.31379,1.17107 -0.45755,0.50275 -1.33696,0.68667 -0.85647,0.17912 -1.40941,-0.0604 -0.55213,-0.23571 -0.84233,-0.9173 l 1.07033,-0.33958 q 0.31457,0.66452 1.03722,0.51338 0.4053,-0.0848 0.58743,-0.28248 0.18293,-0.1939 0.12375,-0.47684 -0.0392,-0.18735 -0.1688,-0.29194 -0.12883,-0.10076 -0.3231,-0.15192 -0.1973,-0.0465 -0.77365,-0.0737 -0.75561,-0.0255 -1.18736,-0.16273 -0.43096,-0.13335 -0.67464,-0.40165 -0.24367,-0.2683 -0.32524,-0.6583 z" /><path
           inkscape:connector-curvature="0"
           id="path5268"
           style="font-style:normal;font-variant:normal;font-weight:bold;font-stretch:normal;font-size:7.99999952px;font-family:'Liberation Mono';-inkscape-font-specification:'Liberation Mono Bold';fill:#0fe827;fill-opacity:1;stroke-width:0.56274396"
           d="m 153.02124,720.86123 0.31669,0.72699 -4.46937,1.9469 -0.31668,-0.72699 z" /><path
           inkscape:connector-curvature="0"
           id="path5270"
           style="font-style:normal;font-variant:normal;font-weight:bold;font-stretch:normal;font-size:7.99999952px;font-family:'Liberation Mono';-inkscape-font-specification:'Liberation Mono Bold';fill:#0fe827;fill-opacity:1;stroke-width:0.56274396"
           d="m 143.31148,723.96211 3.03756,4.30595 -3.08982,2.17965 -0.51339,-0.72776 2.14819,-1.5154 -0.72955,-1.0342 -1.95348,1.37805 -0.51339,-0.72777 1.95348,-1.37804 -0.76784,-1.08846 -2.27905,1.60772 -0.51339,-0.72777 z" /><path
           inkscape:connector-curvature="0"
           id="path5272"
           style="font-style:normal;font-variant:normal;font-weight:bold;font-stretch:normal;font-size:7.99999952px;font-family:'Liberation Mono';-inkscape-font-specification:'Liberation Mono Bold';fill:#0fe827;fill-opacity:1;stroke-width:0.56274396"
           d="m 136.97443,729.85741 q 0.19108,-1.22709 0.92814,-1.86774 0.76948,-0.66884 1.67182,-0.50602 0.9049,0.16577 1.76081,1.15047 1.76562,2.03132 0.12052,3.46124 -0.53068,0.46127 -1.10509,0.47922 -0.57442,0.018 -1.21795,-0.40088 l 0.66943,-0.86135 q 0.66108,0.44498 1.05025,0.10672 0.398,-0.34595 0.30993,-0.82837 -0.091,-0.47985 -0.70861,-1.19036 -0.57146,-0.65745 -1.07906,-0.84249 -0.5076,-0.18504 -0.91151,0.16603 -0.15625,0.13582 -0.2701,0.33829 -0.1168,0.20503 -0.15349,0.4129 l 0.60221,0.69283 0.80781,-0.70215 0.55864,0.64271 -1.60382,1.39405 z" /><path
           inkscape:connector-curvature="0"
           id="path5274"
           style="font-style:normal;font-variant:normal;font-weight:bold;font-stretch:normal;font-size:7.99999952px;font-family:'Liberation Mono';-inkscape-font-specification:'Liberation Mono Bold';fill:#0fe827;fill-opacity:1;stroke-width:0.56274396"
           d="m 133.7121,733.27714 q 0.0664,-1.24011 0.73508,-1.95181 0.69812,-0.74302 1.61228,-0.67201 0.917,0.0737 1.86784,0.96706 1.96144,1.84293 0.46891,3.43145 -0.48146,0.51242 -1.05114,0.5882 -0.56968,0.0758 -1.25217,-0.27603 l 0.57917,-0.92446 q 0.70258,0.37606 1.05566,2.8e-4 0.36109,-0.38432 0.22483,-0.85539 -0.13895,-0.46823 -0.82503,-1.11285 -0.63483,-0.59648 -1.15851,-0.7294 -0.52367,-0.13291 -0.89012,0.2571 -0.14176,0.15088 -0.23461,0.3638 -0.0955,0.21576 -0.11108,0.42627 l 0.669,0.62858 0.73289,-0.78003 0.6206,0.58311 -1.45508,1.54866 z" /><path
           inkscape:connector-curvature="0"
           id="path5276"
           style="font-style:normal;font-variant:normal;font-weight:bold;font-stretch:normal;font-size:7.99999952px;font-family:'Liberation Mono';-inkscape-font-specification:'Liberation Mono Bold';fill:#0fe827;fill-opacity:1;stroke-width:0.56274396"
           d="m 133.06756,738.80384 q -0.41569,-0.3181 -0.58731,-0.74946 -0.16851,-0.429 -0.0638,-0.91941 0.10237,-0.48732 0.48457,-0.98677 l 0.46765,-0.61113 -1.47664,-1.12996 0.70029,-0.91514 4.18484,3.20234 -1.13945,1.48905 q -0.61009,0.79726 -1.26632,0.9542 -0.65551,0.16242 -1.30387,-0.33372 z m 0.68953,-0.93322 q 0.33814,0.25876 0.63751,0.16321 0.30011,-0.0901 0.61108,-0.49646 l 0.36083,-0.47153 -1.29361,-0.9899 -0.37982,0.49635 q -0.31335,0.40949 -0.29063,0.72691 0.0258,0.31979 0.35464,0.57142 z" /><path
           inkscape:connector-curvature="0"
           id="path5278"
           style="font-style:normal;font-variant:normal;font-weight:bold;font-stretch:normal;font-size:7.99999952px;font-family:'Liberation Mono';-inkscape-font-specification:'Liberation Mono Bold';fill:#0fe827;fill-opacity:1;stroke-width:0.56274396"
           d="m 129.56551,737.58471 4.48747,2.76234 -0.60407,0.98132 -3.72902,-2.29546 -1.26139,2.04913 -0.75844,-0.46687 z" /><path
           inkscape:connector-curvature="0"
           id="path5280"
           style="font-style:normal;font-variant:normal;font-weight:bold;font-stretch:normal;font-size:7.99999952px;font-family:'Liberation Mono';-inkscape-font-specification:'Liberation Mono Bold';fill:#0fe827;fill-opacity:1;stroke-width:0.56274396"
           d="m 125.39273,745.29424 0.4995,-1.03413 1.31705,0.23705 0.77473,-1.60394 -1.00445,-0.88426 0.50119,-1.03765 3.99238,3.85012 -0.58444,1.21 z m 5.14801,-0.17702 q -0.13414,-0.0995 -0.39223,-0.31959 -0.25627,-0.21488 -1.48897,-1.30916 l -0.56405,1.16778 q 1.64796,0.28843 1.96855,0.35218 0.31889,0.0673 0.4767,0.10879 z" /><path
           inkscape:connector-curvature="0"
           id="path5282"
           style="font-style:normal;font-variant:normal;font-weight:bold;font-stretch:normal;font-size:7.99999952px;font-family:'Liberation Mono';-inkscape-font-specification:'Liberation Mono Bold';fill:#0fe827;fill-opacity:1;stroke-width:0.56274396"
           d="m 124.39694,748.04142 4.22033,-0.0658 q -0.96273,-0.23262 -1.33732,-0.3684 l -2.40912,-0.87323 0.3421,-0.94382 4.95413,1.79571 -0.44859,1.23762 -4.33147,0.0629 q 0.9003,0.20999 1.37772,0.38304 l 2.46788,0.89453 -0.3421,0.94382 -4.95413,-1.79571 z" /><path
           inkscape:connector-curvature="0"
           id="path5284"
           style="font-style:normal;font-variant:normal;font-weight:bold;font-stretch:normal;font-size:7.99999952px;font-family:'Liberation Mono';-inkscape-font-specification:'Liberation Mono Bold';fill:#0fe827;fill-opacity:1;stroke-width:0.56274396"
           d="m 127.28155,753.75929 -4.24776,-1.06365 0.2799,-1.11783 4.24776,1.06365 0.38523,-1.53844 0.86395,0.21633 -1.05036,4.19471 -0.86395,-0.21633 z" /><path
           inkscape:connector-curvature="0"
           id="path5286"
           style="font-style:normal;font-variant:normal;font-weight:bold;font-stretch:normal;font-size:7.99999952px;font-family:'Liberation Mono';-inkscape-font-specification:'Liberation Mono Bold';fill:#0fe827;fill-opacity:1;stroke-width:0.56274396"
           d="m 123.45302,759.18783 q -0.74231,-0.10711 -1.08559,-0.7368 -0.33998,-0.62527 -0.19439,-1.63435 0.13109,-0.90856 0.59641,-1.42554 0.46531,-0.51697 1.21946,-0.57392 l -0.0159,1.12251 q -0.37625,0.0365 -0.62961,0.28804 -0.2495,0.25211 -0.32034,0.74312 -0.0736,0.51034 0.0536,0.77734 0.12668,0.27086 0.47077,0.32051 0.25517,0.0368 0.46039,-0.15459 0.20909,-0.19085 0.36929,-0.59003 0.32098,-0.80223 0.51754,-1.12512 0.19988,-0.31847 0.41502,-0.49661 0.21514,-0.17813 0.47876,-0.25455 0.26692,-0.072 0.57622,-0.0274 0.67658,0.0976 0.99284,0.69579 0.3157,0.60203 0.1874,1.49126 -0.12495,0.86603 -0.53933,1.30353 -0.41051,0.43805 -1.15027,0.47735 l 0.0474,-1.12192 q 0.73206,-0.068 0.83749,-0.79874 0.0591,-0.40982 -0.0643,-0.64864 -0.11954,-0.23826 -0.40564,-0.27954 -0.18945,-0.0273 -0.3321,0.0586 -0.13878,0.0865 -0.25336,0.25156 -0.11127,0.16944 -0.33409,0.70166 -0.28272,0.70119 -0.55943,1.05988 -0.27285,0.35925 -0.60837,0.49634 -0.33551,0.13709 -0.72987,0.0802 z" /><path
           inkscape:connector-curvature="0"
           id="path5288"
           style="font-style:normal;font-variant:normal;font-weight:bold;font-stretch:normal;font-size:7.99999952px;font-family:'Liberation Mono';-inkscape-font-specification:'Liberation Mono Bold';fill:#0fe827;fill-opacity:1;stroke-width:0.56274396"
           d="m 123.33175,763.88102 0.79164,-0.0459 0.28198,4.86684 -0.79164,0.0459 z" /></g><path
         inkscape:export-ydpi="400"
         inkscape:export-xdpi="400"
         sodipodi:nodetypes="ccccccccccccccccccccc"
         inkscape:connector-curvature="0"
         id="path5990"
         d="m 156.4451,772.4571 0.0623,-0.90337 -0.0983,-1.82987 1.77548,-4.60173 19.75636,-1.50112 5.64877,-4.17933 1.57046,6.32549 -0.47821,3.34562 -1.23329,3.00565 -2.63738,2.35605 -4.45721,0.68968 -8.97231,-2.39313 -2.38613,0.67262 -2.42788,1.52317 -1.41138,0.11254 -2.05152,0.27762 -0.76272,1.59827 -1.69348,-0.4256 0.21131,-2.73911 -0.30619,-0.60294 z"
         style="opacity:1;vector-effect:none;fill:#000000;fill-opacity:1;stroke:none;stroke-width:0.24408048;stroke-linecap:round;stroke-linejoin:round;stroke-miterlimit:4;stroke-dasharray:none;stroke-dashoffset:0;stroke-opacity:1;paint-order:markers fill stroke" /><path
         inkscape:export-ydpi="400"
         inkscape:export-xdpi="400"
         id="path4938"
         d="m 161.07245,774.63643 a 4.1635733,4.1635733 0 0 1 -4.1635,-4.16369 4.1635733,4.1635733 0 0 1 0.65095,-2.23347 c -4.3e-4,-0.002 -4.3e-4,-0.004 -0.002,-0.005 a 19.190967,19.190967 0 0 1 0.0747,-0.0997 4.1635733,4.1635733 0 0 1 0.23502,-0.31381 19.190967,19.190967 0 0 1 15.58655,-8.0556 19.190967,19.190967 0 0 1 5.95259,0.96456 7.0865716,7.0865716 0 0 1 0.71104,0.24311 19.190967,19.190967 0 0 1 0.0206,0.007 c 0,4.2e-4 -4.3e-4,4.2e-4 -4.3e-4,0.002 a 7.0865716,7.0865716 0 0 1 4.4375,6.56863 7.0865716,7.0865716 0 0 1 -7.08673,7.08656 7.0865716,7.0865716 0 0 1 -4.87628,-1.94965 l -0.009,0.01 a 5.9649561,5.9649561 0 0 0 -3.93264,-1.48979 5.9649561,5.9649561 0 0 0 -4.40889,1.95719 l -0.01,-0.0107 a 4.1635733,4.1635733 0 0 1 -3.18048,1.48338 z"
         style="opacity:1;vector-effect:none;fill:#7137c8;fill-opacity:1;stroke:none;stroke-width:0.36900356;stroke-linecap:round;stroke-linejoin:round;stroke-miterlimit:4;stroke-dasharray:none;stroke-dashoffset:0;stroke-opacity:1;paint-order:markers fill stroke"
         inkscape:connector-curvature="0" /><path
         inkscape:export-ydpi="400"
         inkscape:export-xdpi="400"
         id="path5554"
         d="m 156.95464,769.97833 -0.0107,-0.0145 a 4.1635733,4.1635733 0 0 1 0.61589,-1.72461 c -4.3e-4,-0.002 -4.3e-4,-0.004 -0.002,-0.005 a 19.190967,19.190967 0 0 1 0.0747,-0.0997 4.1635733,4.1635733 0 0 1 0.235,-0.31379 19.190967,19.190967 0 0 1 15.58657,-8.05562 19.190967,19.190967 0 0 1 5.95257,0.96456 7.0865716,7.0865716 0 0 1 0.71107,0.24311 19.190967,19.190967 0 0 1 0.0207,0.007 c 0,4.2e-4 -4.2e-4,4.2e-4 -4.2e-4,0.002 a 7.0865716,7.0865716 0 0 1 3.62411,3.27939 l -0.0447,0.0394 a 27.258658,27.258658 0 0 0 -8.49247,-1.39231 27.258658,27.258658 0 0 0 -18.26971,7.07073 z"
         style="opacity:1;vector-effect:none;fill:#5a2ca0;fill-opacity:1;stroke:none;stroke-width:0.36900356;stroke-linecap:round;stroke-linejoin:round;stroke-miterlimit:4;stroke-dasharray:none;stroke-dashoffset:0;stroke-opacity:1;paint-order:markers fill stroke"
         inkscape:connector-curvature="0" /><path
         inkscape:export-ydpi="400"
         inkscape:export-xdpi="400"
         id="path4651"
         d="m 162.60831,759.64646 a 2.5000043,5.0000087 0 0 1 -1.41459,-4.49953 2.5000043,5.0000087 0 0 1 2.49994,-5.00009 2.5000043,5.0000087 0 0 1 2.4992,4.9705 l -0.87559,0.3217 c 0,0 -1.91814,2.95492 -2.70896,4.20742 z"
         style="opacity:1;vector-effect:none;fill:#333333;fill-opacity:1;stroke:none;stroke-width:0.36900356;stroke-linecap:round;stroke-linejoin:round;stroke-miterlimit:4;stroke-dasharray:none;stroke-dashoffset:0;stroke-opacity:1;paint-order:markers fill stroke"
         inkscape:connector-curvature="0" /><path
         inkscape:export-ydpi="400"
         inkscape:export-xdpi="400"
         inkscape:connector-curvature="0"
         style="opacity:1;vector-effect:none;fill:#333333;fill-opacity:1;stroke:none;stroke-width:0.36900356;stroke-linecap:round;stroke-linejoin:round;stroke-miterlimit:4;stroke-dasharray:none;stroke-dashoffset:0;stroke-opacity:1;paint-order:markers fill stroke"
         d="m 177.59615,759.64646 a 2.5000043,5.0000087 0 0 0 1.4146,-4.49953 2.5000043,5.0000087 0 0 0 -2.49994,-5.00009 2.5000043,5.0000087 0 0 0 -2.49921,4.97049 l 0.87561,0.32171 c 0,0 1.91812,2.95492 2.70894,4.20742 z"
         id="path4668" /><path
         inkscape:export-ydpi="400"
         inkscape:export-xdpi="400"
         inkscape:connector-curvature="0"
         id="path4670"
         d="m 164.03084,753.80262 0.58318,1.11777 1.99254,-0.29159 1.67665,-0.87478 2.9402,-0.0486 2.30843,0.92337 2.45423,0.97196 1.11776,-0.70468 c 0,0 -0.36449,-3.2318 -0.34019,-3.329 0.0244,-0.0971 -0.75328,-2.9888 -0.87477,-2.9645 -0.1215,0.0244 -5.58883,0.0486 -5.97761,0.14579 -0.3888,0.0972 -4.56827,0.58319 -4.56827,0.58319 0,0 -0.77757,2.04113 -0.82617,2.25982 -0.0486,0.2187 -0.48598,2.21124 -0.48598,2.21124 z"
         style="opacity:1;vector-effect:none;fill:#333333;fill-opacity:1;stroke:none;stroke-width:0.36900356;stroke-linecap:round;stroke-linejoin:round;stroke-miterlimit:4;stroke-dasharray:none;stroke-dashoffset:0;stroke-opacity:1;paint-order:markers fill stroke" /><path
         inkscape:export-ydpi="400"
         inkscape:export-xdpi="400"
         inkscape:connector-curvature="0"
         style="opacity:1;vector-effect:none;fill:#1a1a1a;fill-opacity:1;stroke:none;stroke-width:0.36900356;stroke-linecap:round;stroke-linejoin:round;stroke-miterlimit:4;stroke-dasharray:none;stroke-dashoffset:0;stroke-opacity:1;paint-order:markers fill stroke"
         d="m 164.67316,757.52844 a 2.8323851,5.6647701 21.959384 0 1 0.41989,-5.32722 2.8323851,5.6647701 21.959384 0 1 4.74522,-4.19473 2.8323851,5.6647701 21.959384 0 1 0.5202,6.28161 l -1.05633,-0.033 c 0,0 -3.26738,2.29225 -4.62898,3.27327 z"
         id="path4626" /><path
         inkscape:export-ydpi="400"
         inkscape:export-xdpi="400"
         id="path4738"
         d="m 164.17489,756.66823 a 2.8323851,5.6647701 45.120277 0 1 2.48134,-4.73272 2.8323851,5.6647701 45.120277 0 1 6.0126,-1.99028 2.8323851,5.6647701 45.120277 0 1 -1.99235,5.97993 l -0.95825,-0.44574 c 0,0 -3.90561,0.82238 -5.54334,1.18881 z"
         style="opacity:1;vector-effect:none;fill:#333333;fill-opacity:1;stroke:none;stroke-width:0.36900356;stroke-linecap:round;stroke-linejoin:round;stroke-miterlimit:4;stroke-dasharray:none;stroke-dashoffset:0;stroke-opacity:1;paint-order:markers fill stroke"
         inkscape:connector-curvature="0" /><path
         inkscape:export-ydpi="400"
         inkscape:export-xdpi="400"
         id="path4827"
         d="m 176.04379,757.52844 a 5.6647701,2.8323851 68.040616 0 0 -0.41991,-5.32722 5.6647701,2.8323851 68.040616 0 0 -4.74519,-4.19473 5.6647701,2.8323851 68.040616 0 0 -0.52022,6.28161 l 1.05634,-0.033 c 0,0 3.26737,2.29225 4.62898,3.27327 z"
         style="opacity:1;vector-effect:none;fill:#1a1a1a;fill-opacity:1;stroke:none;stroke-width:0.36900356;stroke-linecap:round;stroke-linejoin:round;stroke-miterlimit:4;stroke-dasharray:none;stroke-dashoffset:0;stroke-opacity:1;paint-order:markers fill stroke"
         inkscape:connector-curvature="0" /><path
         inkscape:export-ydpi="400"
         inkscape:export-xdpi="400"
         inkscape:connector-curvature="0"
         style="opacity:1;vector-effect:none;fill:#333333;fill-opacity:1;stroke:none;stroke-width:0.36900356;stroke-linecap:round;stroke-linejoin:round;stroke-miterlimit:4;stroke-dasharray:none;stroke-dashoffset:0;stroke-opacity:1;paint-order:markers fill stroke"
         d="m 176.54206,756.66823 a 5.6647701,2.8323851 44.879723 0 0 -2.48135,-4.73272 5.6647701,2.8323851 44.879723 0 0 -6.0126,-1.99028 5.6647701,2.8323851 44.879723 0 0 1.99237,5.97993 l 0.95823,-0.44574 c 0,0 3.90561,0.82238 5.54335,1.18881 z"
         id="path4829" /><path
         inkscape:export-ydpi="400"
         inkscape:export-xdpi="400"
         id="path4658"
         d="m 162.99655,752.3673 c -0.33495,-10e-6 -0.60646,-0.27154 -0.60649,-0.60648 1.3e-4,-0.0459 0.005,-0.0918 0.0162,-0.13663 l -4.2e-4,-4.2e-4 1.26007,-4.83045 h 5.84402 1.08347 5.84401 l 1.26006,4.83045 -4.3e-4,4.2e-4 a 0.60649757,0.60649757 0 0 1 0.0164,0.13663 0.60649757,0.60649757 0 0 1 -0.60648,0.60648 0.60649757,0.60649757 0 0 1 -0.0634,-0.004 h -6.72466 -0.20712 -7.05113 c -0.021,0.002 -0.0423,0.004 -0.0636,0.004 z"
         style="opacity:1;vector-effect:none;fill:#f2f2f2;fill-opacity:1;stroke:none;stroke-width:0.36900356;stroke-linecap:round;stroke-linejoin:round;stroke-miterlimit:4;stroke-dasharray:none;stroke-dashoffset:0;stroke-opacity:1;paint-order:markers fill stroke"
         inkscape:connector-curvature="0" /><path
         inkscape:export-ydpi="400"
         inkscape:export-xdpi="400"
         id="path4704"
         d="m 169.99621,772.19897 c -1.54202,0 -3.69785,-1.49425 -5.45616,-3.57889 a 8.8190438,8.8190438 0 0 0 5.45616,1.91099 8.8190438,8.8190438 0 0 0 6.18174,-2.54593 c -1.72699,2.40947 -4.12236,4.21383 -6.18174,4.21383 z"
         style="opacity:1;vector-effect:none;fill:#1a1a1a;fill-opacity:1;stroke:none;stroke-width:0.36900356;stroke-linecap:round;stroke-linejoin:round;stroke-miterlimit:4;stroke-dasharray:none;stroke-dashoffset:0;stroke-opacity:1;paint-order:markers fill stroke"
         inkscape:connector-curvature="0" /><path
         inkscape:export-ydpi="400"
         inkscape:export-xdpi="400"
         inkscape:connector-curvature="0"
         id="path6129"
         d="m 183.37343,771.49185 -0.004,-0.005 a 6.44095,6.44095 0 0 0 0.34018,-2.0401 6.44095,6.44095 0 0 0 -5.33517,-6.33647 c 0.096,-0.50287 0.14794,-1.00124 0.14794,-1.48715 0,-0.29769 -0.0154,-0.59181 -0.0452,-0.88164 0.0197,-0.0855 0.0387,-0.17122 0.0587,-0.25498 a 19.190967,19.190967 0 0 1 0.8707,0.24275 7.0865716,7.0865716 0 0 1 0.71107,0.2431 19.190967,19.190967 0 0 1 0.0207,0.007 c 0,4.2e-4 -4.2e-4,4.2e-4 -4.2e-4,0.002 a 7.0865716,7.0865716 0 0 1 4.43751,6.56861 7.0865716,7.0865716 0 0 1 -1.20143,3.94207 z"
         style="opacity:1;vector-effect:none;fill:#5a2ca0;fill-opacity:1;stroke:none;stroke-width:0.36900356;stroke-linecap:round;stroke-linejoin:round;stroke-miterlimit:4;stroke-dasharray:none;stroke-dashoffset:0;stroke-opacity:1;paint-order:markers fill stroke" /><path
         inkscape:export-ydpi="400"
         inkscape:export-xdpi="400"
         id="path6170"
         d="m 157.7884,771.87198 c -0.0753,0.0445 -0.79871,-0.81566 -0.79871,-0.81566 0,0 -0.0486,-0.16058 -0.0587,-0.19337 a 4.1635733,4.1635733 0 0 1 -0.0221,-0.39029 4.1635733,4.1635733 0 0 1 0.65094,-2.23346 c -4.3e-4,-0.002 -4.3e-4,-0.004 -0.002,-0.005 a 19.190967,19.190967 0 0 1 0.0747,-0.0997 4.1635733,4.1635733 0 0 1 0.235,-0.31378 19.190967,19.190967 0 0 1 0.0219,-0.0275 l 1.14868,0.47963 a 2.7530566,2.7530566 0 0 0 -1.21595,2.28284 2.7530566,2.7530566 0 0 0 0.25669,1.1532 c -0.13548,0.0762 -0.261,0.14629 -0.29061,0.16377 z"
         style="opacity:1;vector-effect:none;fill:#5a2ca0;fill-opacity:1;stroke:none;stroke-width:0.36900356;stroke-linecap:round;stroke-linejoin:round;stroke-miterlimit:4;stroke-dasharray:none;stroke-dashoffset:0;stroke-opacity:1;paint-order:markers fill stroke"
         inkscape:connector-curvature="0" /><path
         inkscape:export-ydpi="400"
         inkscape:export-xdpi="400"
         sodipodi:nodetypes="ccccccccccc"
         inkscape:connector-curvature="0"
         id="path6269"
         d="m 158.27393,773.11258 c 0,0 -0.47754,-0.99089 -1.13667,-1.29544 -0.14946,-0.43257 -0.22657,-0.88684 -0.22823,-1.34448 2.8e-4,-0.79121 0.22615,-1.56596 0.65095,-2.23346 -4.3e-4,-0.002 -4.3e-4,-0.004 -0.002,-0.005 0.0247,-0.0333 0.0496,-0.0665 0.0747,-0.0997 0.0734,-0.10822 0.15179,-0.21293 0.23502,-0.31378 0.64889,-0.89996 1.37462,-1.74197 2.169,-2.51653 0.65536,0.47666 1.6483,1.23179 1.6483,1.23179 -2.04142,1.13626 -3.30747,3.28887 -3.30846,5.62522 0.002,0.0771 -0.10787,0.8751 -0.1027,0.95205 z"
         style="opacity:1;vector-effect:none;fill:#5a2ca0;fill-opacity:1;stroke:none;stroke-width:0.36900356;stroke-linecap:round;stroke-linejoin:round;stroke-miterlimit:4;stroke-dasharray:none;stroke-dashoffset:0;stroke-opacity:1;paint-order:markers fill stroke" /><path
         inkscape:export-ydpi="400"
         inkscape:export-xdpi="400"
         inkscape:connector-curvature="0"
         id="path5032"
         d="m 160.71192,774.78119 a 1.0046207,1.6255103 83.00584 0 1 -0.0159,0.009 1.0046207,1.6255103 83.00584 0 1 -0.75852,0.21706 1.0046207,1.6255103 83.00584 0 1 -1.73569,-0.79924 1.0046207,1.6255103 83.00584 0 1 -0.003,-0.0719 l 1.85676,-0.0813 0.90573,0.58033 a 1.0046207,1.6255103 83.00584 0 1 -0.24918,0.14711 z"
         style="opacity:1;vector-effect:none;fill:#87de87;fill-opacity:1;stroke:none;stroke-width:0.36900356;stroke-linecap:round;stroke-linejoin:round;stroke-miterlimit:4;stroke-dasharray:none;stroke-dashoffset:0;stroke-opacity:1;paint-order:markers fill stroke" /><path
         inkscape:export-ydpi="400"
         inkscape:export-xdpi="400"
         inkscape:connector-curvature="0"
         style="opacity:1;vector-effect:none;fill:#87de87;fill-opacity:1;stroke:none;stroke-width:0.36900356;stroke-linecap:round;stroke-linejoin:round;stroke-miterlimit:4;stroke-dasharray:none;stroke-dashoffset:0;stroke-opacity:1;paint-order:markers fill stroke"
         d="m 156.91904,771.68109 a 1.6255103,1.0046207 85.651532 0 0 -0.005,0.0172 1.6255103,1.0046207 85.651532 0 0 -0.0636,0.78639 1.6255103,1.0046207 85.651532 0 0 1.125,1.5446 1.6255103,1.0046207 85.651532 0 0 0.071,-0.0112 l -0.28546,-1.83647 -0.74712,-0.77389 a 1.6255103,1.0046207 85.651532 0 0 -0.0952,0.27323 z"
         id="path5075" /><path
         inkscape:connector-curvature="0"
         id="path5077"
         d="m 159.29031,772.8892 a 0.44461779,1.3518783 17.650254 0 0 -0.0138,-1.42305 0.44461779,1.3518783 17.650254 0 0 -0.83358,1.15343 0.44461779,1.3518783 17.650254 0 0 0.0138,1.42305 0.44461779,1.3518783 17.650254 0 0 0.83358,-1.15343 z"
         style="opacity:1;vector-effect:none;fill:#87de87;fill-opacity:1;stroke:none;stroke-width:0.36900353;stroke-linecap:round;stroke-linejoin:round;stroke-miterlimit:4;stroke-dasharray:none;stroke-dashoffset:0;stroke-opacity:1;paint-order:markers fill stroke" /><path
         inkscape:connector-curvature="0"
         id="ellipse5079"
         d="m 158.04653,772.09291 a 0.44461784,1.3518783 47.650261 0 0 -0.69958,1.23929 0.44461784,1.3518783 47.650261 0 0 1.29862,-0.5821 0.44461784,1.3518783 47.650261 0 0 0.69959,-1.2393 0.44461784,1.3518783 47.650261 0 0 -1.29863,0.58211 z"
         style="opacity:1;vector-effect:none;fill:#87de87;fill-opacity:1;stroke:none;stroke-width:0.36900356;stroke-linecap:round;stroke-linejoin:round;stroke-miterlimit:4;stroke-dasharray:none;stroke-dashoffset:0;stroke-opacity:1;paint-order:markers fill stroke" /><path
         inkscape:export-ydpi="400"
         inkscape:export-xdpi="400"
         inkscape:connector-curvature="0"
         id="path5085"
         d="m 158.68744,771.62084 0.80377,-0.41574 -0.0374,0.80959 -0.33213,-0.0154 -0.26404,-0.1692 z"
         style="opacity:1;vector-effect:none;fill:#87de87;fill-opacity:1;stroke:none;stroke-width:0.36900356;stroke-linecap:round;stroke-linejoin:round;stroke-miterlimit:4;stroke-dasharray:none;stroke-dashoffset:0;stroke-opacity:1;paint-order:markers fill stroke" /><path
         inkscape:connector-curvature="0"
         id="ellipse5087"
         d="m 160.11956,774.27278 a 0.44461784,1.3518786 47.650257 0 0 0.69959,-1.23929 0.44461784,1.3518786 47.650257 0 0 -1.29863,0.5821 0.44461784,1.3518786 47.650257 0 0 -0.69958,1.2393 0.44461784,1.3518786 47.650257 0 0 1.29862,-0.58211 z"
         style="opacity:1;vector-effect:none;fill:#87de87;fill-opacity:1;stroke:none;stroke-width:0.36900356;stroke-linecap:round;stroke-linejoin:round;stroke-miterlimit:4;stroke-dasharray:none;stroke-dashoffset:0;stroke-opacity:1;paint-order:markers fill stroke" /><path
         inkscape:connector-curvature="0"
         id="ellipse5089"
         d="m 159.44064,772.96138 a 0.44461783,1.3518785 77.650249 0 0 -1.2255,0.72347 0.44461783,1.3518785 77.650249 0 0 1.41569,0.14519 0.44461783,1.3518785 77.650249 0 0 1.2255,-0.72346 0.44461783,1.3518785 77.650249 0 0 -1.41569,-0.1452 z"
         style="opacity:1;vector-effect:none;fill:#87de87;fill-opacity:1;stroke:none;stroke-width:0.36900356;stroke-linecap:round;stroke-linejoin:round;stroke-miterlimit:4;stroke-dasharray:none;stroke-dashoffset:0;stroke-opacity:1;paint-order:markers fill stroke" /><path
         inkscape:export-ydpi="400"
         inkscape:export-xdpi="400"
         style="opacity:1;vector-effect:none;fill:#87de87;fill-opacity:1;stroke:none;stroke-width:0.36900356;stroke-linecap:round;stroke-linejoin:round;stroke-miterlimit:4;stroke-dasharray:none;stroke-dashoffset:0;stroke-opacity:1;paint-order:markers fill stroke"
         d="m 160.23164,772.87291 0.90395,0.0418 -0.43724,0.68239 -0.27994,-0.17936 -0.14408,-0.27857 z"
         id="path5091"
         inkscape:connector-curvature="0" /><path
         inkscape:connector-curvature="0"
         id="path5114"
         d="m 158.40169,775.59565 a 0.65190583,0.65190583 0 0 0 -0.87854,-0.27953 0.65190583,0.65190583 0 0 0 -0.27953,0.87853 0.65190583,0.65190583 0 0 0 0.87853,0.27953 0.65190583,0.65190583 0 0 0 0.27954,-0.87853 z"
         style="opacity:1;vector-effect:none;fill:#87de87;fill-opacity:1;stroke:none;stroke-width:0.36900356;stroke-linecap:round;stroke-linejoin:round;stroke-miterlimit:4;stroke-dasharray:none;stroke-dashoffset:0;stroke-opacity:1;paint-order:markers fill stroke" /><path
         inkscape:export-ydpi="400"
         inkscape:export-xdpi="400"
         inkscape:connector-curvature="0"
         id="path5116"
         d="m 157.93326,776.02407 0.50073,0.0657 c 0,0 0.27016,-0.98671 0.72911,-1.70297 0.45895,-0.71625 0.82277,-0.75025 0.82277,-0.75025 l -0.39527,-0.41113 -0.73409,-0.033 -0.46907,-0.50145 -0.5414,0.10419 -0.41535,0.47865 -0.17225,0.3732 c 0,0 0.004,0.13968 -0.0558,0.83381 -0.0604,0.69415 -0.0766,1.42799 -0.0119,1.57895 0.0647,0.15091 0.16264,0.15095 0.16264,0.15095 0,0 0.27401,-0.15029 0.28463,-0.16245 0.0107,-0.0122 0.30139,-0.0189 0.30139,-0.0189 z"
         style="opacity:1;vector-effect:none;fill:#87de87;fill-opacity:1;stroke:none;stroke-width:0.36900356;stroke-linecap:round;stroke-linejoin:round;stroke-miterlimit:4;stroke-dasharray:none;stroke-dashoffset:0;stroke-opacity:1;paint-order:markers fill stroke" /><path
         inkscape:export-ydpi="400"
         inkscape:export-xdpi="400"
         sodipodi:nodetypes="ccccc"
         inkscape:connector-curvature="0"
         id="path5130"
         d="m 157.50996,772.17832 0.25104,0.003 0.24907,0.24629 -0.20873,0.0517 z"
         style="opacity:1;vector-effect:none;fill:#87de87;fill-opacity:1;stroke:none;stroke-width:0.36900356;stroke-linecap:round;stroke-linejoin:round;stroke-miterlimit:4;stroke-dasharray:none;stroke-dashoffset:0;stroke-opacity:1;paint-order:markers fill stroke" /><path
         inkscape:export-ydpi="400"
         inkscape:export-xdpi="400"
         inkscape:connector-curvature="0"
         id="path4656"
         d="m 165.25903,769.44893 a 2.3556258,1.7786487 45 0 1 -1.78077,-0.82885 2.3556258,1.7786487 45 0 1 -0.40783,-2.92342 2.3556258,1.7786487 45 0 1 0.24612,-0.19394 c 0.98391,1.05633 2.80665,3.00579 3.05309,3.17521 0.0622,0.0428 0.11347,0.11581 0.15585,0.20637 a 2.3556258,1.7786487 45 0 1 -0.12382,0.1438 2.3556258,1.7786487 45 0 1 -1.14264,0.42083 z"
         style="opacity:1;vector-effect:none;fill:#333333;fill-opacity:1;stroke:none;stroke-width:0.36900356;stroke-linecap:round;stroke-linejoin:round;stroke-miterlimit:4;stroke-dasharray:none;stroke-dashoffset:0;stroke-opacity:1;paint-order:markers fill stroke" /><path
         inkscape:export-ydpi="400"
         inkscape:export-xdpi="400"
         sodipodi:nodetypes="ssssssssss"
         id="path4525"
         d="m 169.99621,772.19897 c -3.05642,0 -8.5264,-5.86705 -8.5264,-10.57611 0,-4.70908 3.81732,-8.5264 8.5264,-8.5264 4.70907,0 8.52658,3.81732 8.52658,8.5264 0,4.70906 -4.8119,10.57611 -8.52658,10.57611 z m 0,-3.54954 c 3.08588,0 7.08334,-3.02547 7.08334,-6.93743 0,-3.91196 -3.17139,-7.08316 -7.08334,-7.08316 -3.91196,0 -7.08316,3.1712 -7.08316,7.08316 0,3.91196 4.5441,6.93743 7.08316,6.93743 z"
         style="opacity:1;vector-effect:none;fill:#333333;fill-opacity:1;stroke:none;stroke-width:0.36900353;stroke-linecap:round;stroke-linejoin:round;stroke-miterlimit:4;stroke-dasharray:none;stroke-dashoffset:0;stroke-opacity:1;paint-order:markers fill stroke"
         inkscape:connector-curvature="0" /><path
         inkscape:export-ydpi="400"
         inkscape:export-xdpi="400"
         inkscape:connector-curvature="0"
         style="opacity:1;vector-effect:none;fill:#333333;fill-opacity:1;stroke:none;stroke-width:0.36900353;stroke-linecap:round;stroke-linejoin:round;stroke-miterlimit:4;stroke-dasharray:none;stroke-dashoffset:0;stroke-opacity:1;paint-order:markers fill stroke"
         d="m 169.99621,772.19897 c -3.05642,0 -8.5264,-5.86705 -8.5264,-10.57611 0,-4.70908 3.81732,-8.5264 8.5264,-8.5264 4.70907,0 8.52658,3.81732 8.52658,8.5264 0,4.70906 -4.8119,10.57611 -8.52658,10.57611 z m 0,-3.54954 c 3.08588,0 7.08334,-3.02547 7.08334,-6.93743 0,-3.91196 -3.17139,-7.08316 -7.08334,-7.08316 -3.91196,0 -7.08316,3.1712 -7.08316,7.08316 0,3.91196 4.5441,6.93743 7.08316,6.93743 z"
         id="path4809"
         sodipodi:nodetypes="ssssssssss" /><path
         inkscape:export-ydpi="400"
         inkscape:export-xdpi="400"
         inkscape:connector-curvature="0"
         style="opacity:1;vector-effect:none;fill:#333333;fill-opacity:1;stroke:none;stroke-width:0.36900356;stroke-linecap:round;stroke-linejoin:round;stroke-miterlimit:4;stroke-dasharray:none;stroke-dashoffset:0;stroke-opacity:1;paint-order:markers fill stroke"
         d="m 175.29701,769.44893 a 1.7786485,2.3556258 45 0 0 1.78078,-0.82885 1.7786485,2.3556258 45 0 0 0.40783,-2.92342 1.7786485,2.3556258 45 0 0 -0.24613,-0.19394 c -0.98391,1.05633 -2.80666,3.00579 -3.05309,3.17521 -0.062,0.0428 -0.11348,0.11583 -0.15586,0.20637 a 1.7786485,2.3556258 45 0 0 0.12383,0.1438 1.7786485,2.3556258 45 0 0 1.14264,0.42083 z"
         id="path4811" /><path
         inkscape:connector-curvature="0"
         id="circle4687"
         d="m 177.39989,761.71203 a 7.4035864,7.4035864 0 0 0 -7.40358,-7.40359 7.4035864,7.4035864 0 0 0 -7.40359,7.40359 7.4035864,7.4035864 0 0 0 7.40359,7.40358 7.4035864,7.4035864 0 0 0 7.40358,-7.40358 z"
         style="opacity:1;vector-effect:none;fill:#1a1a1a;fill-opacity:1;stroke:none;stroke-width:0.36900353;stroke-linecap:round;stroke-linejoin:round;stroke-miterlimit:4;stroke-dasharray:none;stroke-dashoffset:0;stroke-opacity:1;paint-order:markers fill stroke" /><path
         inkscape:connector-curvature="0"
         id="path4520"
         d="m 176.47206,761.71203 a 6.4757484,6.4757484 0 0 0 -6.47575,-6.47576 6.4757484,6.4757484 0 0 0 -6.47575,6.47576 6.4757484,6.4757484 0 0 0 6.47575,6.47574 6.4757484,6.4757484 0 0 0 6.47575,-6.47574 z"
         style="opacity:1;vector-effect:none;fill:#0088aa;fill-opacity:1;stroke:none;stroke-width:0.36900353;stroke-linecap:round;stroke-linejoin:round;stroke-miterlimit:4;stroke-dasharray:none;stroke-dashoffset:0;stroke-opacity:1;paint-order:markers fill stroke" /><path
         inkscape:export-ydpi="400"
         inkscape:export-xdpi="400"
         id="circle16089"
         d="m 169.99621,768.18774 a 6.4757492,6.4757492 0 0 1 -6.07696,-4.26225 7.4727325,7.4727325 0 0 1 -0.0481,-0.7416 7.4727325,7.4727325 0 0 1 7.47271,-7.47271 7.4727325,7.4727325 0 0 1 1.38633,0.13853 6.4757492,6.4757492 0 0 1 3.74191,5.8623 6.4757492,6.4757492 0 0 1 -6.47592,6.47573 z"
         style="opacity:1;vector-effect:none;fill:#00aad4;fill-opacity:1;stroke:none;stroke-width:0.36900353;stroke-linecap:round;stroke-linejoin:round;stroke-miterlimit:4;stroke-dasharray:none;stroke-dashoffset:0;stroke-opacity:1;paint-order:markers fill stroke"
         inkscape:connector-curvature="0" /><path
         inkscape:connector-curvature="0"
         id="path4491"
         d="m 168.66786,761.64182 a 2.6116885,2.6116885 0 0 0 -2.61169,-2.61169 2.6116885,2.6116885 0 0 0 -2.61168,2.61169 2.6116885,2.6116885 0 0 0 2.61168,2.61169 2.6116885,2.6116885 0 0 0 2.61169,-2.61169 z"
         style="opacity:1;vector-effect:none;fill:#ffffff;fill-opacity:1;stroke:none;stroke-width:0.36900356;stroke-linecap:round;stroke-linejoin:round;stroke-miterlimit:4;stroke-dasharray:none;stroke-dashoffset:0;stroke-opacity:1;paint-order:markers fill stroke" /><path
         inkscape:connector-curvature="0"
         id="path4493"
         d="m 165.52351,762.73288 a 0.42096294,0.42096294 0 0 0 -0.42096,-0.42097 0.42096294,0.42096294 0 0 0 -0.42096,0.42097 0.42096294,0.42096294 0 0 0 0.42096,0.42096 0.42096294,0.42096294 0 0 0 0.42096,-0.42096 z"
         style="opacity:1;vector-effect:none;fill:#000000;fill-opacity:1;stroke:none;stroke-width:0.36900356;stroke-linecap:round;stroke-linejoin:round;stroke-miterlimit:4;stroke-dasharray:none;stroke-dashoffset:0;stroke-opacity:1;paint-order:markers fill stroke" /><path
         inkscape:connector-curvature="0"
         id="circle4495"
         d="m 165.10257,762.86167 a 0.08591076,0.08591076 0 0 0 -0.0859,-0.0859 0.08591076,0.08591076 0 0 0 -0.0859,0.0859 0.08591076,0.08591076 0 0 0 0.0859,0.0859 0.08591076,0.08591076 0 0 0 0.0859,-0.0859 z"
         style="opacity:1;vector-effect:none;fill:#ffffff;fill-opacity:1;stroke:none;stroke-width:0.36900356;stroke-linecap:round;stroke-linejoin:round;stroke-miterlimit:4;stroke-dasharray:none;stroke-dashoffset:0;stroke-opacity:1;paint-order:markers fill stroke" /><path
         inkscape:connector-curvature="0"
         id="circle4629"
         d="m 171.34828,761.64182 a 2.6116885,2.6116885 0 0 1 2.61169,-2.61169 2.6116885,2.6116885 0 0 1 2.61169,2.61169 2.6116885,2.6116885 0 0 1 -2.61169,2.61169 2.6116885,2.6116885 0 0 1 -2.61169,-2.61169 z"
         style="opacity:1;vector-effect:none;fill:#ffffff;fill-opacity:1;stroke:none;stroke-width:0.36900356;stroke-linecap:round;stroke-linejoin:round;stroke-miterlimit:4;stroke-dasharray:none;stroke-dashoffset:0;stroke-opacity:1;paint-order:markers fill stroke" /><path
         inkscape:connector-curvature="0"
         id="circle4631"
         d="m 174.49263,762.73288 a 0.42096294,0.42096294 0 0 1 0.42096,-0.42097 0.42096294,0.42096294 0 0 1 0.42096,0.42097 0.42096294,0.42096294 0 0 1 -0.42096,0.42096 0.42096294,0.42096294 0 0 1 -0.42096,-0.42096 z"
         style="opacity:1;vector-effect:none;fill:#000000;fill-opacity:1;stroke:none;stroke-width:0.36900356;stroke-linecap:round;stroke-linejoin:round;stroke-miterlimit:4;stroke-dasharray:none;stroke-dashoffset:0;stroke-opacity:1;paint-order:markers fill stroke" /><path
         inkscape:connector-curvature="0"
         id="circle4633"
         d="m 174.91358,762.86167 a 0.08591076,0.08591076 0 0 1 0.0859,-0.0859 0.08591076,0.08591076 0 0 1 0.0859,0.0859 0.08591076,0.08591076 0 0 1 -0.0859,0.0859 0.08591076,0.08591076 0 0 1 -0.0859,-0.0859 z"
         style="opacity:1;vector-effect:none;fill:#ffffff;fill-opacity:1;stroke:none;stroke-width:0.36900356;stroke-linecap:round;stroke-linejoin:round;stroke-miterlimit:4;stroke-dasharray:none;stroke-dashoffset:0;stroke-opacity:1;paint-order:markers fill stroke" /><path
         inkscape:connector-curvature="0"
         id="rect4516"
         d="m 169.52854,758.44378 c 0.23894,0 0.43131,-0.33953 0.43131,-0.76128 0,-0.42175 -0.19237,-0.76128 -0.43131,-0.76128 -0.23895,0 -0.43131,0.33953 -0.43131,0.76128 0,0.42175 0.19236,0.76128 0.43131,0.76128 z"
         style="opacity:1;vector-effect:none;fill:#ffffff;fill-opacity:1;stroke:none;stroke-width:0.36900356;stroke-linecap:round;stroke-linejoin:round;stroke-miterlimit:4;stroke-dasharray:none;stroke-dashoffset:0;stroke-opacity:1;paint-order:markers fill stroke" /><path
         inkscape:connector-curvature="0"
         id="rect4518"
         d="m 170.39117,758.44378 c 0.23895,0 0.43131,-0.33953 0.43131,-0.76128 0,-0.42175 -0.19236,-0.76128 -0.43131,-0.76128 -0.23894,0 -0.43131,0.33953 -0.43131,0.76128 0,0.42175 0.19237,0.76128 0.43131,0.76128 z"
         style="opacity:1;vector-effect:none;fill:#ffffff;fill-opacity:1;stroke:none;stroke-width:0.36900356;stroke-linecap:round;stroke-linejoin:round;stroke-miterlimit:4;stroke-dasharray:none;stroke-dashoffset:0;stroke-opacity:1;paint-order:markers fill stroke" /><path
         inkscape:connector-curvature="0"
         id="path4499"
         d="m 171.27155,758.74142 a 1.2876319,0.79580018 0 0 0 -1.28763,-0.7958 1.2876319,0.79580018 0 0 0 -1.28763,0.7958 1.2876319,0.79580018 0 0 0 1.28763,0.7958 1.2876319,0.79580018 0 0 0 1.28763,-0.7958 z"
         style="opacity:1;vector-effect:none;fill:#deaa87;fill-opacity:1;stroke:none;stroke-width:0.36900356;stroke-linecap:round;stroke-linejoin:round;stroke-miterlimit:4;stroke-dasharray:none;stroke-dashoffset:0;stroke-opacity:1;paint-order:markers fill stroke" /><path
         inkscape:export-ydpi="400"
         inkscape:export-xdpi="400"
         id="ellipse16157"
         d="m 170.8213,758.1382 a 1.2876319,0.79580023 0 0 0 -0.83734,-0.19261 1.2876319,0.79580023 0 0 0 -0.0242,4.2e-4 v -0.25235 a 1.2876319,0.79580023 0 0 1 0.0242,-4.2e-4 1.2876319,0.79580023 0 0 1 0.83847,0.19318 v 0.24142 c 0,0.004 -4.2e-4,0.006 -4.2e-4,0.0107 z"
         style="opacity:1;vector-effect:none;fill:#f2f2f2;fill-opacity:1;stroke:none;stroke-width:0.36900356;stroke-linecap:round;stroke-linejoin:round;stroke-miterlimit:4;stroke-dasharray:none;stroke-dashoffset:0;stroke-opacity:1;paint-order:markers fill stroke"
         inkscape:connector-curvature="0" /><path
         inkscape:export-ydpi="400"
         inkscape:export-xdpi="400"
         id="rect4516-6"
         d="m 169.10082,758.16365 c -4.2e-4,-0.0118 -0.004,-0.0236 -0.004,-0.0359 v -0.21447 a 1.2876319,0.79580023 0 0 1 0.86258,-0.21936 v 0.25234 a 1.2876319,0.79580023 0 0 0 -0.85899,0.2173 z"
         style="opacity:1;vector-effect:none;fill:#f2f2f2;fill-opacity:1;stroke:none;stroke-width:0.36900356;stroke-linecap:round;stroke-linejoin:round;stroke-miterlimit:4;stroke-dasharray:none;stroke-dashoffset:0;stroke-opacity:1;paint-order:markers fill stroke"
         inkscape:connector-curvature="0" /><path
         inkscape:export-ydpi="400"
         inkscape:export-xdpi="400"
         id="ellipse16201"
         d="m 169.98396,759.53715 a 1.2876319,0.79580023 0 0 1 -1.28776,-0.79568 1.2876319,0.79580023 0 0 1 0.007,-0.0786 1.4558657,0.89977434 0 0 1 1.28002,-0.47265 1.4558657,0.89977434 0 0 1 1.28136,0.47303 1.2876319,0.79580023 0 0 1 0.006,0.0783 1.2876319,0.79580023 0 0 1 -1.28758,0.79567 z"
         style="opacity:1;vector-effect:none;fill:#e9c6af;fill-opacity:1;stroke:none;stroke-width:0.36900356;stroke-linecap:round;stroke-linejoin:round;stroke-miterlimit:4;stroke-dasharray:none;stroke-dashoffset:0;stroke-opacity:1;paint-order:markers fill stroke"
         inkscape:connector-curvature="0" /><path
         inkscape:connector-curvature="0"
         id="rect4497"
         d="m 169.94853,759.74376 c 0.28316,0 0.51112,-0.14089 0.51112,-0.31589 0,-0.175 -0.22796,-0.31589 -0.51112,-0.31589 -0.28316,0 -0.51112,0.14089 -0.51112,0.31589 0,0.175 0.22796,0.31589 0.51112,0.31589 z"
         style="opacity:1;vector-effect:none;fill:#502d16;fill-opacity:1;stroke:none;stroke-width:0.36900356;stroke-linecap:round;stroke-linejoin:round;stroke-miterlimit:4;stroke-dasharray:none;stroke-dashoffset:0;stroke-opacity:1;paint-order:markers fill stroke" /><path
         inkscape:export-ydpi="400"
         inkscape:export-xdpi="400"
         id="rect16221"
         d="m 169.75328,759.7437 c -0.15855,0 -0.28781,-0.11593 -0.31096,-0.2678 0.0233,-0.15181 0.15247,-0.26781 0.31096,-0.26781 h 0.39049 c 0.1585,0 0.28775,0.116 0.31097,0.26781 -0.0231,0.15187 -0.15242,0.2678 -0.31097,0.2678 z"
         style="opacity:1;vector-effect:none;fill:#784421;fill-opacity:1;stroke:none;stroke-width:0.36900356;stroke-linecap:round;stroke-linejoin:round;stroke-miterlimit:4;stroke-dasharray:none;stroke-dashoffset:0;stroke-opacity:1;paint-order:markers fill stroke"
         inkscape:connector-curvature="0" /><g
         inkscape:export-ydpi="400"
         inkscape:export-xdpi="400"
         style="stroke-width:2.0366056"
         transform="matrix(0.15979561,0,0,0.15979561,133.25964,654.84796)"
         id="g4705"><path
           style="opacity:1;vector-effect:none;fill:#333333;fill-opacity:1;stroke:none;stroke-width:2.30922246;stroke-linecap:round;stroke-linejoin:round;stroke-miterlimit:4;stroke-dasharray:none;stroke-dashoffset:0;stroke-opacity:1;paint-order:markers fill stroke"
           d="m 231.96003,598.99946 a 2.7345544,2.7345544 0 0 1 -1.97093,-0.66785 2.7345544,2.7345544 0 0 1 -0.92249,-1.8024 3.6071392,3.0900051 41.126458 0 1 0.0925,0.0246 3.6071392,3.0900051 41.126458 0 1 -0.0368,-0.0883 2.7345544,2.7345544 0 0 1 1.9103,0.67111 2.7345544,2.7345544 0 0 1 0.92744,1.86291 z"
           id="path4659"
           inkscape:connector-curvature="0" /><path
           inkscape:connector-curvature="0"
           style="opacity:1;vector-effect:none;fill:#333333;fill-opacity:1;stroke:none;stroke-width:2.30922246;stroke-linecap:round;stroke-linejoin:round;stroke-miterlimit:4;stroke-dasharray:none;stroke-dashoffset:0;stroke-opacity:1;paint-order:markers fill stroke"
           d="m 227.97511,595.65001 a 3.7431857,4.3696341 0 0 1 -3.74415,-4.36963 3.7431857,4.3696341 0 0 1 3.74415,-4.36962 3.7431857,4.3696341 0 0 1 1.3623,0.30175 3.7431857,4.3696341 0 0 1 1.35351,-0.30175 3.7431857,4.3696341 0 0 1 3.15088,2.01123 3.312598,3.312598 0 0 0 -0.90967,2.27783 3.312598,3.312598 0 0 0 0.96094,2.33056 3.7431857,4.3696341 0 0 1 -3.20215,2.11963 3.7431857,4.3696341 0 0 1 -1.3623,-0.30029 3.7431857,4.3696341 0 0 1 -1.35351,0.30029 z"
           id="path4659-3" /></g></g></g></svg>